PathFileType	4	(X/Y/Z)	..\data\2014030\dynamic\2014030_C4_03.trc
DataRate	CameraRate	NumFrames	NumMarkers	Units	OrigDataRate	OrigDataStartFrame	OrigNumFrames
100.000000	100.000000	4	52	mm	100.000000	152	174
Frame#	Time	L_IAS			L_IPS			R_IPS			R_IAS			L_FTC			L_FLE			L_FME			L_FAX			L_TTC			L_FAL			L_TAM			L_FCC			L_FM1			L_FM2			L_FM5			R_FTC			R_FLE			R_FME			R_FAX			R_TTC			R_FAL			R_TAM			R_FCC			R_FM1			R_FM2			R_FM5			CV7			TV10			SXS			SJN			L_SIA			L_SRS			L_SAA			L_SAE			L_HLE			L_HME			L_UOA			L_RSP			L_UHE			L_HM2			L_HM5			R_SIA			R_SRS			R_SAA			R_SAE			R_HLE			R_HME			R_UOA			R_RSP			R_UHE			R_HM2			R_HM5			
		X1	Y1	Z1	X2	Y2	Z2	X3	Y3	Z3	X4	Y4	Z4	X5	Y5	Z5	X6	Y6	Z6	X7	Y7	Z7	X8	Y8	Z8	X9	Y9	Z9	X10	Y10	Z10	X11	Y11	Z11	X12	Y12	Z12	X13	Y13	Z13	X14	Y14	Z14	X15	Y15	Z15	X16	Y16	Z16	X17	Y17	Z17	X18	Y18	Z18	X19	Y19	Z19	X20	Y20	Z20	X21	Y21	Z21	X22	Y22	Z22	X23	Y23	Z23	X24	Y24	Z24	X25	Y25	Z25	X26	Y26	Z26	X27	Y27	Z27	X28	Y28	Z28	X29	Y29	Z29	X30	Y30	Z30	X31	Y31	Z31	X32	Y32	Z32	X33	Y33	Z33	X34	Y34	Z34	X35	Y35	Z35	X36	Y36	Z36	X37	Y37	Z37	X38	Y38	Z38	X39	Y39	Z39	X40	Y40	Z40	X41	Y41	Z41	X42	Y42	Z42	X43	Y43	Z43	X44	Y44	Z44	X45	Y45	Z45	X46	Y46	Z46	X47	Y47	Z47	X48	Y48	Z48	X49	Y49	Z49	X50	Y50	Z50	X51	Y51	Z51	X52	Y52	Z52	

153	1.52	1530.384887695313	933.6010742187502	-387.4505004882814	1325.432250976563	976.2265625000002	-314.4790039062501	1332.53076171875	979.9456176757815	-199.0478057861329	1535.476196289063	936.6892700195315	-132.647689819336	1465.979614257813	864.867858886719	-439.2539367675782	1605.107543945313	493.1244506835939	-400.1577758789064	1615.144897460938	493.6161193847657	-279.5293884277344	1595.95556640625	434.1348266601564	-402.9426574707032	1653.740234375	432.2076110839845	-346.9479064941407	1525.119506835938	104.0422058105469	-394.9226684570314	1539.304809570313	114.1288681030274	-304.6019897460938	1472.825317382813	63.27035903930665	-354.0825195312501	1651.057495117188	41.25722885131837	-303.6054992675782	1659.669555664063	49.64339065551759	-358.5842285156251	1628.062377929688	29.71763229370118	-403.9060363769532	1446.8955078125	856.7266845703127	-79.35916900634767	1426.429565429688	461.0573730468751	-162.0659637451172	1413.708740234375	470.8226928710939	-284.9460144042969	1408.491943359375	401.5743408203126	-165.1041259765625	1456.528564453125	396.1542968750001	-229.7276000976563	1326.604248046875	74.38238525390626	-202.1637878417969	1335.438842773438	83.62143707275392	-294.0744323730469	1270.536010742188	25.50829124450684	-240.9232177734376	1454.600830078125	14.0684404373169	-278.1674499511719	1466.603759765625	34.2801742553711	-220.0016784667969	1418.316528320313	18.74047279357911	-166.8372344970703	1395.644775390625	1433.283569335938	-258.3577880859376	1333.5693359375	1202.622192382813	-275.2849731445313	1575.064697265625	1131.78125	-278.8056945800782	1529.759643554688	1351.261352539063	-276.7558288574219	1322.6806640625	1232.458618164063	-365.4437255859376	1354.229248046875	1365.77099609375	-375.1375732421876	1402.101806640625	1370.307861328125	-443.3061523437501	1456.5185546875	1379.326049804688	-463.649627685547	1379.14404296875	1071.729125976563	-524.6920776367189	1334.7216796875	1079.8408203125	-465.9597167968751	1340.181396484375	1053.226806640625	-503.379119873047	1430.554565429688	834.3145751953127	-465.6265563964845	1392.545166015625	840.0071411132815	-528.5794067382814	1439.570068359375	746.2399291992189	-461.503387451172	1373.23681640625	772.3345336914065	-537.1214599609376	1330.398681640625	1226.437255859375	-182.2528228759766	1368.441162109375	1349.6298828125	-157.6060638427735	1413.638916015625	1351.552490234375	-104.6684875488282	1468.270263671875	1357.6728515625	-86.2962112426758	1472.49072265625	1039.577392578125	-3.834881305694581	1429.93115234375	1018.186401367188	-74.54299163818361	1442.690673828125	999.4855957031252	-30.32887840270997	1616.659301757813	849.5708007812502	-75.34786224365236	1575.179931640625	825.8389892578127	-10.12983322143555	1677.766235351563	786.3535766601565	-76.14095306396486	1612.020751953125	762.6920776367189	-6.261701107025148	
154	1.53	1540.329223632813	932.4423828125002	-388.1045532226564	1335.082397460938	975.103698730469	-315.0942687988282	1342.301025390625	978.7479248046877	-199.7791290283204	1545.021728515625	935.5889282226565	-133.0270690917969	1475.431030273438	863.8120117187502	-439.9443664550782	1614.514892578125	491.3338928222657	-400.3822631835939	1625.02001953125	491.8125915527345	-279.8497619628907	1608.114624023438	431.5808105468751	-402.8224182128907	1665.568725585938	432.4568786621095	-346.4699707031251	1556.923706054688	97.98834228515628	-393.8120422363282	1570.240112304688	109.2985305786133	-303.2810363769532	1506.936157226563	54.43435668945314	-352.9358520507813	1685.876586914063	43.41096496582032	-301.2325744628907	1694.232666015625	51.86339950561525	-356.2019042968751	1664.16650390625	29.73232460021973	-401.5443420410157	1455.8818359375	855.7473144531252	-79.73087310791017	1431.336303710938	460.452850341797	-162.577880859375	1419.511474609375	470.4483337402345	-285.3541870117188	1412.773681640625	401.1086425781251	-165.5855712890625	1460.584716796875	395.0953063964845	-230.2289276123047	1327.001708984375	74.87220764160158	-202.5707244873047	1336.1064453125	83.93206024169923	-294.5867309570313	1270.567260742188	26.37825012207032	-241.3092651367188	1454.636108398438	13.91886138916016	-278.3759155273438	1466.5458984375	34.18126296997071	-220.1640319824219	1418.116577148438	18.85757446289063	-167.1969299316407	1405.571899414063	1432.381591796875	-258.7061767578126	1343.3310546875	1201.720336914063	-275.6307983398438	1584.835693359375	1130.7060546875	-279.4468383789063	1539.744140625	1350.240356445313	-277.2079467773438	1332.41748046875	1231.47509765625	-365.4786071777344	1364.020385742188	1364.820556640625	-375.3160705566407	1411.658325195313	1369.328979492188	-443.6224670410157	1466.047607421875	1378.269653320313	-464.0927734375001	1386.983276367188	1071.000122070313	-524.4773559570314	1343.005493164063	1079.408935546875	-465.5156555175782	1348.011962890625	1052.765625	-503.0188903808595	1437.037963867188	833.1928710937502	-465.8796691894532	1398.68115234375	839.2109375000002	-528.6198730468751	1445.27734375	745.0105590820314	-461.7971191406251	1378.753295898438	771.705505371094	-537.0637207031251	1340.285034179688	1225.649658203125	-182.3984069824219	1378.66650390625	1348.774047851563	-157.809555053711	1424.026245117188	1350.591796875	-104.8222579956055	1478.71484375	1356.750732421875	-86.71516418457033	1485.299560546875	1038.694702148438	-3.98670530319214	1442.44287109375	1016.919311523438	-74.45070648193361	1455.697631835938	998.2747802734377	-30.45215225219727	1631.184204101563	850.7253417968752	-77.00088500976564	1590.938354492188	826.2348632812502	-11.43128967285156	1693.15234375	788.3303833007815	-78.37329101562501	1628.201293945313	763.5496215820314	-8.156863212585451	
155	1.54	1550.323364257813	931.1897583007815	-388.8001708984376	1344.845336914063	973.8356933593752	-315.7565307617188	1352.140380859375	977.449890136719	-200.5548400878907	1554.630493164063	934.5258789062502	-133.4574432373047	1484.854736328125	862.600036621094	-440.6224365234376	1623.2744140625	489.2464294433595	-400.5316772460939	1634.225219726563	489.6498413085939	-280.0478820800782	1619.64208984375	428.8956604003907	-402.635223388672	1676.732421875	432.5100097656251	-345.9495544433594	1588.212768554688	92.8404006958008	-392.7094116210939	1600.627197265625	105.3490829467774	-302.0253601074219	1540.615844726563	46.70408248901368	-351.7717895507813	1719.694213867188	46.54101181030274	-298.8767089843751	1727.862182617188	54.98009490966798	-353.8388671875001	1699.4345703125	30.70438766479493	-399.2061157226564	1464.965942382813	854.7276000976565	-80.13802337646486	1436.342895507813	459.8452758789064	-163.0732727050782	1425.068481445313	470.1189575195314	-285.7543945312501	1417.150268554688	400.6579589843751	-166.0596008300782	1464.722045898438	394.0603637695314	-230.7352447509766	1327.46044921875	75.44367980957033	-202.9712219238282	1336.765258789063	84.33733367919923	-295.0615234375001	1270.65478515625	27.35136985778809	-241.706771850586	1454.671997070313	13.78300762176514	-278.5913391113282	1466.477294921875	34.08258819580079	-220.320785522461	1417.9208984375	19.00858879089356	-167.5654296875	1415.53515625	1431.382080078125	-259.1024780273438	1353.10986328125	1200.73193359375	-276.0405273437501	1594.633178710938	1129.566040039063	-280.1335449218751	1549.733154296875	1349.152465820313	-277.7019958496094	1342.184814453125	1230.409057617188	-365.5934448242188	1373.837036132813	1363.7861328125	-375.5631408691407	1421.237915039063	1368.291748046875	-444.0167846679689	1475.624389648438	1377.157592773438	-464.5860290527345	1395.035766601563	1070.1923828125	-524.3872680664064	1351.4619140625	1078.873779296875	-465.2243041992189	1356.050903320313	1052.184936523438	-502.8107299804689	1443.861328125	832.0557861328127	-466.1592102050782	1405.218872070313	838.3515625000002	-528.7213745117189	1451.410278320313	743.7773437500001	-462.0805053710939	1384.75	770.9946899414065	-537.0684814453126	1350.189208984375	1224.780639648438	-182.6043701171875	1388.902709960938	1347.828247070313	-158.0692291259766	1434.409301757813	1349.558715820313	-105.069206237793	1489.164672851563	1355.760375976563	-87.20232391357423	1498.009399414063	1037.73486328125	-4.270562171936036	1454.890747070313	1015.611511230469	-74.50218963623048	1468.59326171875	997.0172119140627	-30.71974563598634	1645.433715820313	851.6763916015627	-78.66049957275392	1606.347045898438	826.4866333007815	-12.77648735046387	1708.151733398438	790.0112304687502	-80.58504486083986	1643.978271484375	764.2536010742189	-10.02097129821778	
156	1.55	1560.386596679688	929.8500976562502	-389.520233154297	1354.734985351563	972.4368286132815	-316.4813232421876	1362.04736328125	976.074401855469	-201.3824920654297	1564.312866210938	933.4935302734377	-133.9366455078125	1494.300415039063	861.237487792969	-441.2806396484376	1631.486450195313	486.9265747070314	-400.5750427246095	1642.81982421875	487.1961364746095	-280.0840454101563	1630.57470703125	426.1477050781251	-402.3618164062501	1687.302856445313	432.4028930664064	-345.3728027343751	1618.666625976563	88.63319396972658	-391.6491088867189	1630.194580078125	102.2743911743164	-300.8813781738282	1573.520874023438	40.12335205078126	-350.6301879882813	1752.250732421875	50.51995849609376	-296.6930847167969	1760.26513671875	58.88402557373048	-351.6549987792969	1733.507568359375	32.56875610351563	-397.0369262695314	1474.167358398438	853.6776123046877	-80.58399200439455	1441.459716796875	459.2349853515626	-163.5498199462891	1430.4365234375	469.8220825195314	-286.1474609375001	1421.633056640625	400.224578857422	-166.5245819091797	1468.952758789063	393.0496520996095	-231.2551727294922	1327.983642578125	76.10025024414064	-203.3468322753907	1337.40576171875	84.84244537353517	-295.4838562011719	1270.797485351563	28.42834472656251	-242.0972290039063	1454.713989257813	13.66916275024414	-278.8014831542969	1466.412963867188	33.99343490600587	-220.4599609375001	1417.745971679688	19.19216537475586	-167.9206848144532	1425.538940429688	1430.2900390625	-259.5484619140626	1362.917602539063	1199.66064453125	-276.5101928710938	1604.467407226563	1128.372924804688	-280.8657531738282	1559.72314453125	1348.008422851563	-278.2409057617188	1351.987060546875	1229.26318359375	-365.7872314453126	1383.678466796875	1362.671020507813	-375.8803405761719	1430.839111328125	1367.198974609375	-444.4899902343751	1485.24462890625	1375.99462890625	-465.1329345703126	1403.303955078125	1069.307495117188	-524.4302978515626	1360.089599609375	1078.233032226563	-465.0944213867189	1364.303588867188	1051.484985351563	-502.7608032226564	1451.037353515625	830.9033203125002	-466.4680786132814	1412.174438476563	837.4260864257815	-528.8890991210939	1457.9794921875	742.5400390625001	-462.3540954589845	1391.2412109375	770.196716308594	-537.1406860351564	1360.129516601563	1223.831298828125	-182.869613647461	1399.15234375	1346.799560546875	-158.386947631836	1444.793579101563	1348.46142578125	-105.4107818603516	1499.624633789063	1354.708374023438	-87.75778198242189	1510.600219726563	1036.707763671875	-4.689172267913819	1467.262451171875	1014.27392578125	-74.6998977661133	1481.362670898438	995.7213134765627	-31.13085556030274	1659.406127929688	852.415222167969	-80.32079315185548	1621.365600585938	826.5855102539065	-14.16963386535645	1722.763061523438	791.3890380859377	-82.7588577270508	1659.331176757813	764.7896118164064	-11.85068321228028	
